<?xml version="1.0" encoding="utf-8"?>
<!-- Generator: Adobe Illustrator 19.2.1, SVG Export Plug-In . SVG Version: 6.00 Build 0)  -->
<svg version="1.1" id="git_logo" xmlns="http://www.w3.org/2000/svg" xmlns:xlink="http://www.w3.org/1999/xlink" x="0px" y="0px"
	 viewBox="0 0 355 354" style="enable-background:new 0 0 355 354;" xml:space="preserve">
<style type="text/css">
	.st0{fill:#FFFFFF;}
	.st1{fill:#F05033;}
</style>
<rect x="57.7" y="72.4" transform="matrix(0.7071 0.7071 -0.7071 0.7071 173.7467 -73.5792)" class="st0" width="236" height="201.2"/>
<path class="st1" d="M341.2,165.1L191.6,15.5c-6.9-6.9-18.3-6.9-25.2,0l-33.2,33.2l36.4,36.4c2.8-1.1,5.8-1.6,8.9-1.6
	c13.9,0,25.1,11.2,25.1,25.1c0,3.1-0.6,6.2-1.6,8.9l37.4,37.4c2.6-0.9,5.3-1.4,8.2-1.4c13.9,0,25.1,11.2,25.1,25.1
	s-11.2,25.1-25.1,25.1s-25.1-11.2-25.1-25.1c0-3.6,0.8-7.1,2.2-10.2l0,0L190,133.8V198v27.3c8.1,4.2,13.7,12.6,13.7,22.3
	c0,13.9-11.2,25.1-25.1,25.1s-25.1-11.2-25.1-25.1c0-10.5,6.4-19.4,15.5-23.2V143v-11.2c-9.1-3.8-15.5-12.7-15.5-23.2
	c0-3.2,0.6-6.3,1.7-9.1l-36.4-36.4l-102,102c-6.9,6.9-6.9,18.3,0,25.2L166.4,340c6.9,6.9,18.3,6.9,25.2,0l149.6-149.6
	C348.1,183.4,348.1,172.1,341.2,165.1z"/>
</svg>
