<svg version="1.1" id="javascript_logo" xmlns="http://www.w3.org/2000/svg" xmlns:xlink="http://www.w3.org/1999/xlink" x="0px" y="0px" viewBox="0 0 380.1 384.1" enable-background="new 0 0 380.1 384.1" xml:space="preserve">
	<rect x="7.7" y="10.6" fill="#F0DB4F" width="364.3" height="364.3"/>
	<path fill="#323330" d="M130.8,298.5c7.9,13.2,13.6,16.9,23.5,17c15.4,0.2,17.3-10.3,17.1-30.8l0.2-106.3h33.8l0.2,108.9 c0,34.3-10,58.7-51.3,58.7c-25.1,0-40-11.2-51.3-31L130.8,298.5z"/>
	<path fill="#323330" d="M251.8,295.3c8.5,11.3,16.9,20.5,30.5,20.5c15.3,0,26.8-6,26.8-15.8c0-10.3-6.4-16.2-20.7-22.2l-21.1-9 c-18.2-7.3-32.7-23.7-33-47.5c-0.4-30.5,27.1-45.4,47.6-45.4c23.5,0,38.8,7.2,51.3,27.7l-26.5,16.8c-3.5-8.3-10.8-15-22-14.8 c-10.3,0.3-16.8,7-16.8,16.3c0,10,14.4,16.6,28.8,22.4l21.2,10.3c4.5,2.4,27.2,15.8,25.2,47.7c-1.5,23.1-18.7,43.8-60,43.8 c-21.3,0-45.7-11.3-58.6-34.8L251.8,295.3z"/>
</svg>